<svg xmlns="http://www.w3.org/2000/svg" viewBox="0 0 1200 460"><rect width="1200" height="460" rx="0" fill="#e8eef2"/><circle cx="225" cy="120" r="84" fill="#cdd9e3"/><circle cx="1070" cy="352" r="93" fill="#d5dfe7"/><path d="M0 460 L0 360 Q 600.0 300 1200 360 L1200 460 Z" fill="#b6c8d6"/><circle cx="130" cy="230" r="23" fill="#8ba8bf" opacity=".75"/><circle cx="122" cy="222" r="7" fill="#fff" opacity=".6"/><circle cx="250" cy="330" r="20" fill="#8ba8bf" opacity=".75"/><circle cx="243" cy="323" r="6" fill="#fff" opacity=".6"/><circle cx="1060" cy="250" r="19" fill="#8ba8bf" opacity=".75"/><circle cx="1053" cy="243" r="6" fill="#fff" opacity=".6"/><circle cx="1010" cy="150" r="20" fill="#8ba8bf" opacity=".75"/><circle cx="1003" cy="143" r="6" fill="#fff" opacity=".6"/><circle cx="980" cy="330" r="20" fill="#8ba8bf" opacity=".75"/><circle cx="973" cy="323" r="6" fill="#fff" opacity=".6"/><circle cx="935" cy="157" r="4" fill="#3E6E94" opacity=".5"/><circle cx="62" cy="225" r="3" fill="#3E6E94" opacity=".5"/><circle cx="389" cy="369" r="5" fill="#3E6E94" opacity=".5"/><circle cx="1091" cy="183" r="4" fill="#5B9E4A" opacity=".5"/><circle cx="606" cy="92" r="6" fill="#E8744F" opacity=".5"/><circle cx="318" cy="118" r="6" fill="#D24D6E" opacity=".5"/><circle cx="1022" cy="244" r="3" fill="#D24D6E" opacity=".5"/><circle cx="242" cy="222" r="5" fill="#7E57A6" opacity=".5"/><circle cx="876" cy="395" r="6" fill="#7E57A6" opacity=".5"/><circle cx="110" cy="351" r="4" fill="#E8744F" opacity=".5"/><circle cx="770" cy="235" r="118" fill="#9eb6ca"/><circle cx="770" cy="235" r="100" fill="#fff"/><g transform="translate(681.2 146.2) scale(7.4)" fill="none" stroke="#3E6E94" stroke-width="1.01" stroke-linecap="round" stroke-linejoin="round" color="#3E6E94"><path d="M9 3h6M10 3v6.2L5.4 17.3A2 2 0 0 0 7.1 20.4h9.8a2 2 0 0 0 1.7-3.1L14 9.2V3"/><path d="M8.2 14h7.6"/></g></svg>