<svg xmlns="http://www.w3.org/2000/svg" viewBox="0 0 1200 460"><rect width="1200" height="460" rx="0" fill="#e8eef2"/><circle cx="194" cy="107" r="107" fill="#cdd9e3"/><circle cx="990" cy="317" r="94" fill="#d5dfe7"/><path d="M0 460 L0 360 Q 600.0 300 1200 360 L1200 460 Z" fill="#b6c8d6"/><circle cx="980" cy="330" r="22" fill="#8ba8bf" opacity=".75"/><circle cx="972" cy="322" r="7" fill="#fff" opacity=".6"/><circle cx="1010" cy="150" r="16" fill="#8ba8bf" opacity=".75"/><circle cx="1004" cy="144" r="5" fill="#fff" opacity=".6"/><circle cx="1060" cy="250" r="26" fill="#8ba8bf" opacity=".75"/><circle cx="1051" cy="241" r="8" fill="#fff" opacity=".6"/><circle cx="250" cy="330" r="24" fill="#8ba8bf" opacity=".75"/><circle cx="242" cy="322" r="7" fill="#fff" opacity=".6"/><circle cx="190" cy="120" r="26" fill="#8ba8bf" opacity=".75"/><circle cx="181" cy="111" r="8" fill="#fff" opacity=".6"/><circle cx="630" cy="124" r="4" fill="#F2A03D" opacity=".5"/><circle cx="788" cy="247" r="6" fill="#7E57A6" opacity=".5"/><circle cx="686" cy="204" r="5" fill="#D24D6E" opacity=".5"/><circle cx="128" cy="316" r="5" fill="#2E7D5B" opacity=".5"/><circle cx="618" cy="219" r="3" fill="#3E6E94" opacity=".5"/><circle cx="392" cy="190" r="6" fill="#E8744F" opacity=".5"/><circle cx="494" cy="378" r="3" fill="#7E57A6" opacity=".5"/><circle cx="180" cy="104" r="6" fill="#3E6E94" opacity=".5"/><circle cx="154" cy="283" r="7" fill="#3E6E94" opacity=".5"/><circle cx="1120" cy="194" r="3" fill="#D24D6E" opacity=".5"/><circle cx="770" cy="235" r="118" fill="#9eb6ca"/><circle cx="770" cy="235" r="100" fill="#fff"/><g transform="translate(681.2 146.2) scale(7.4)" fill="none" stroke="#3E6E94" stroke-width="1.01" stroke-linecap="round" stroke-linejoin="round" color="#3E6E94"><path d="M9 3h6M10 3v6.2L5.4 17.3A2 2 0 0 0 7.1 20.4h9.8a2 2 0 0 0 1.7-3.1L14 9.2V3"/><path d="M8.2 14h7.6"/></g></svg>