<svg xmlns="http://www.w3.org/2000/svg" viewBox="0 0 1200 460"><defs><linearGradient id="sky" x1="0" y1="0" x2="0" y2="1"><stop offset="0" stop-color="#FCF8F1"/><stop offset="1" stop-color="#f7dfe5"/></linearGradient><linearGradient id="grd" x1="0" y1="0" x2="0" y2="1"><stop offset="0" stop-color="#eebbc8"/><stop offset="1" stop-color="#d1a5b0"/></linearGradient><radialGradient id="glow" cx="0.5" cy="0.2" r="0.7"><stop offset="0" stop-color="#ffffff" stop-opacity="0.6"/><stop offset="1" stop-color="#ffffff" stop-opacity="0"/></radialGradient></defs><rect width="1200" height="460" fill="url(#sky)"/><rect width="1200" height="460" fill="url(#glow)"/><circle cx="658" cy="101" r="42" fill="#ffffff" opacity="0.18"/><circle cx="238" cy="106" r="30" fill="#ffffff" opacity="0.18"/><circle cx="695" cy="114" r="54" fill="#ffffff" opacity="0.18"/><path d="M0 350 Q300 300 600 335 T1200 325 L1200 460 L0 460 Z" fill="#e8a6b6" opacity=".6"/><path d="M0 368 Q400 332 800 360 T1200 350 L1200 460 L0 460 Z" fill="url(#grd)"/><ellipse cx="540" cy="346" rx="56" ry="18" fill="#1b1a18" opacity=".10"/><path d="M501 340 Q498 249 540 246 Q582 249 579 340 Z" fill="#D24D6E"/><circle cx="540" cy="228" r="24" fill="#F2C9A0"/><ellipse cx="660" cy="351" rx="38" ry="12" fill="#1b1a18" opacity=".10"/><path d="M633 345 Q632 283 660 281 Q688 283 687 345 Z" fill="#dd7a92"/><circle cx="660" cy="269" r="16" fill="#E8B98C"/><path transform="translate(570 148.0) scale(2.5)" opacity="1.0" d="M12 19.5 4.8 12.3a4.3 4.3 0 0 1 6-6.1l1.2 1.1 1.2-1.1a4.3 4.3 0 0 1 6 6.1z" fill="#D24D6E"/><path transform="translate(570 148.0) scale(2.5)" opacity="0.0" d="M12 19.5 4.8 12.3a4.3 4.3 0 0 1 6-6.1l1.2 1.1 1.2-1.1a4.3 4.3 0 0 1 6 6.1z" fill="#ffffff"/><path transform="translate(737 172.5) scale(1.25)" opacity="0.8" d="M12 19.5 4.8 12.3a4.3 4.3 0 0 1 6-6.1l1.2 1.1 1.2-1.1a4.3 4.3 0 0 1 6 6.1z" fill="#e0829a"/><path transform="translate(442 134.4) scale(1.1666666666666667)" opacity="0.8" d="M12 19.5 4.8 12.3a4.3 4.3 0 0 1 6-6.1l1.2 1.1 1.2-1.1a4.3 4.3 0 0 1 6 6.1z" fill="#e0829a"/><path transform="translate(446 173.4) scale(1.1666666666666667)" opacity="0.8" d="M12 19.5 4.8 12.3a4.3 4.3 0 0 1 6-6.1l1.2 1.1 1.2-1.1a4.3 4.3 0 0 1 6 6.1z" fill="#e0829a"/><path transform="translate(614 94.5) scale(1.25)" opacity="0.8" d="M12 19.5 4.8 12.3a4.3 4.3 0 0 1 6-6.1l1.2 1.1 1.2-1.1a4.3 4.3 0 0 1 6 6.1z" fill="#e0829a"/><polygon points="900.0,75.0 902.6,81.4 909.5,81.9 904.3,86.4 905.9,93.1 900.0,89.5 894.1,93.1 895.7,86.4 890.5,81.9 897.4,81.4" fill="#F2A03D" opacity="0.8"/><polygon points="1118.0,88.0 1120.9,95.0 1128.5,95.6 1122.7,100.5 1124.5,107.9 1118.0,104.0 1111.5,107.9 1113.3,100.5 1107.5,95.6 1115.1,95.0" fill="#db718b" opacity="0.8"/><circle cx="950" cy="271" r="4" fill="#db718b" opacity="0.6"/><polygon points="972.0,261.0 973.3,264.2 976.8,264.5 974.1,266.7 974.9,270.0 972.0,268.2 969.1,270.0 969.9,266.7 967.2,264.5 970.7,264.2" fill="#F2A03D" opacity="0.8"/><circle cx="886" cy="122" r="6" fill="#F2A03D" opacity="0.6"/></svg>