<svg xmlns="http://www.w3.org/2000/svg" viewBox="0 0 1200 460"><rect width="1200" height="460" rx="0" fill="#ebf3e9"/><circle cx="213" cy="82" r="81" fill="#d4e6d0"/><circle cx="1069" cy="323" r="128" fill="#dbead7"/><path d="M0 460 L0 360 Q 600.0 300 1200 360 L1200 460 Z" fill="#c1daba"/><path d="M1060 272q-22 -10 -16 -34 24 -2 16 34z" fill="#8cbb80"/><path d="M190 142q-22 -10 -16 -34 24 -2 16 34z" fill="#8cbb80"/><path d="M250 352q-22 -10 -16 -34 24 -2 16 34z" fill="#8cbb80"/><path d="M980 352q-22 -10 -16 -34 24 -2 16 34z" fill="#8cbb80"/><path d="M1010 172q-22 -10 -16 -34 24 -2 16 34z" fill="#8cbb80"/><circle cx="158" cy="56" r="6" fill="#D24D6E" opacity=".5"/><circle cx="1030" cy="411" r="5" fill="#F2A03D" opacity=".5"/><circle cx="351" cy="342" r="4" fill="#F2A03D" opacity=".5"/><circle cx="959" cy="178" r="4" fill="#D24D6E" opacity=".5"/><circle cx="521" cy="401" r="5" fill="#2E7D5B" opacity=".5"/><circle cx="272" cy="218" r="6" fill="#2E7D5B" opacity=".5"/><circle cx="519" cy="260" r="6" fill="#2E7D5B" opacity=".5"/><circle cx="516" cy="94" r="5" fill="#D24D6E" opacity=".5"/><circle cx="990" cy="348" r="5" fill="#5B9E4A" opacity=".5"/><circle cx="611" cy="403" r="3" fill="#2E7D5B" opacity=".5"/><circle cx="600" cy="235" r="118" fill="#adcea4"/><circle cx="600" cy="235" r="100" fill="#fff"/><g transform="translate(511.2 146.2) scale(7.4)" fill="none" stroke="#5B9E4A" stroke-width="1.01" stroke-linecap="round" stroke-linejoin="round" color="#5B9E4A"><path d="M5 19c0-7 5-13 14-14 .5 6-2 14-10 14a4 4 0 0 1-4-4Z"/><path d="M6.5 17.5C9 14 12.5 11.5 16 10"/></g></svg>