<svg xmlns="http://www.w3.org/2000/svg" viewBox="0 0 1200 460"><defs><linearGradient id="sky" x1="0" y1="0" x2="0" y2="1"><stop offset="0" stop-color="#FCF8F1"/><stop offset="1" stop-color="#dce5ec"/></linearGradient><linearGradient id="grd" x1="0" y1="0" x2="0" y2="1"><stop offset="0" stop-color="#b6c8d6"/><stop offset="1" stop-color="#a0b0bc"/></linearGradient><radialGradient id="glow" cx="0.5" cy="0.2" r="0.7"><stop offset="0" stop-color="#ffffff" stop-opacity="0.6"/><stop offset="1" stop-color="#ffffff" stop-opacity="0"/></radialGradient></defs><rect width="1200" height="460" fill="url(#sky)"/><rect width="1200" height="460" fill="url(#glow)"/><circle cx="451" cy="88" r="51" fill="#ffffff" opacity="0.18"/><circle cx="450" cy="113" r="32" fill="#ffffff" opacity="0.18"/><circle cx="1062" cy="79" r="52" fill="#ffffff" opacity="0.18"/><path d="M0 350 Q300 300 600 335 T1200 325 L1200 460 L0 460 Z" fill="#9eb6ca" opacity=".6"/><path d="M0 368 Q400 332 800 360 T1200 350 L1200 460 L0 460 Z" fill="url(#grd)"/><ellipse cx="600" cy="358" rx="150" ry="42.00000000000001" fill="#1b1a18" opacity="0.10"/><rect x="367" y="220" width="26" height="120" rx="13" fill="#ffffff" stroke="#386385" stroke-width="3"/><rect x="370" y="285" width="20" height="52" rx="10" fill="#5B9E4A"/><circle cx="377" cy="300" r="3" fill="#ffffff" opacity=".7"/><rect x="417" y="220" width="26" height="120" rx="13" fill="#ffffff" stroke="#386385" stroke-width="3"/><rect x="420" y="285" width="20" height="52" rx="10" fill="#7E57A6"/><circle cx="427" cy="300" r="3" fill="#ffffff" opacity=".7"/><rect x="586" y="180" width="28" height="55" rx="6" fill="#ffffff" stroke="#376182" stroke-width="4"/><path d="M586 230 L530 330 Q526 345 542 345 L658 345 Q674 345 670 330 L614 230 Z" fill="#ffffff" stroke="#376182" stroke-width="4"/><path d="M552 300 L542 330 Q538 341 550 341 L650 341 Q662 341 658 330 L648 300 Z" fill="#7E57A6"/><ellipse cx="570" cy="316" rx="10" ry="4" fill="#ffffff" opacity=".3"/><circle cx="597" cy="162" r="7" fill="#7E57A6" opacity="0.5"/><circle cx="600" cy="138" r="9" fill="#7E57A6" opacity="0.5"/><circle cx="601" cy="114" r="6" fill="#7E57A6" opacity="0.5"/><circle cx="604" cy="88" r="8" fill="#7E57A6" opacity="0.5"/><circle cx="828" cy="222" r="6" fill="#7E57A6" opacity="0.6"/><polygon points="1037.0,113.0 1039.6,119.4 1046.5,119.9 1041.3,124.4 1042.9,131.1 1037.0,127.5 1031.1,131.1 1032.7,124.4 1027.5,119.9 1034.4,119.4" fill="#F2A03D" opacity="0.8"/><circle cx="1093" cy="94" r="4" fill="#7E57A6" opacity="0.6"/><circle cx="796" cy="222" r="6" fill="#658ba9" opacity="0.6"/><polygon points="1004.0,170.0 1006.4,175.7 1012.6,176.2 1007.9,180.3 1009.3,186.3 1004.0,183.1 998.7,186.3 1000.1,180.3 995.4,176.2 1001.6,175.7" fill="#7E57A6" opacity="0.8"/><circle cx="898" cy="226" r="5" fill="#658ba9" opacity="0.6"/><polygon points="810.0,203.0 812.6,209.4 819.5,209.9 814.3,214.4 815.9,221.1 810.0,217.5 804.1,221.1 805.7,214.4 800.5,209.9 807.4,209.4" fill="#F2A03D" opacity="0.8"/></svg>