<svg xmlns="http://www.w3.org/2000/svg" viewBox="0 0 1200 460"><defs><linearGradient id="sky" x1="0" y1="0" x2="0" y2="1"><stop offset="0" stop-color="#FCF8F1"/><stop offset="1" stop-color="#d9e8e1"/></linearGradient><linearGradient id="grd" x1="0" y1="0" x2="0" y2="1"><stop offset="0" stop-color="#b0cec1"/><stop offset="1" stop-color="#9bb5aa"/></linearGradient><radialGradient id="glow" cx="0.5" cy="0.2" r="0.7"><stop offset="0" stop-color="#ffffff" stop-opacity="0.6"/><stop offset="1" stop-color="#ffffff" stop-opacity="0"/></radialGradient></defs><rect width="1200" height="460" fill="url(#sky)"/><rect width="1200" height="460" fill="url(#glow)"/><circle cx="390" cy="43" r="48" fill="#ffffff" opacity="0.18"/><circle cx="556" cy="44" r="36" fill="#ffffff" opacity="0.18"/><circle cx="294" cy="100" r="58" fill="#ffffff" opacity="0.18"/><path d="M0 350 Q300 300 600 335 T1200 325 L1200 460 L0 460 Z" fill="#96bead" opacity=".6"/><path d="M0 368 Q400 332 800 360 T1200 350 L1200 460 L0 460 Z" fill="url(#grd)"/><ellipse cx="620" cy="358" rx="170" ry="47.6" fill="#1b1a18" opacity="0.10"/><g transform="translate(430 250) skewX(-12)"><rect width="220" height="120" rx="10" fill="#a1c4b5"/><rect x="12" y="12" width="46" height="46" rx="6" fill="#d5e5de"/><rect x="112" y="12" width="46" height="46" rx="6" fill="#d5e5de"/><rect x="62" y="62" width="46" height="46" rx="6" fill="#d5e5de"/><rect x="162" y="62" width="46" height="46" rx="6" fill="#d5e5de"/></g><ellipse cx="760" cy="352" rx="46" ry="12.88" fill="#1b1a18" opacity="0.10"/><rect x="716" y="206" width="88" height="88" rx="18" fill="#ffffff" stroke="#297052" stroke-width="3"/><circle cx="738" cy="228" r="7" fill="#2E7D5B"/><circle cx="782" cy="228" r="7" fill="#2E7D5B"/><circle cx="760" cy="250" r="7" fill="#2E7D5B"/><circle cx="738" cy="272" r="7" fill="#2E7D5B"/><circle cx="782" cy="272" r="7" fill="#2E7D5B"/><ellipse cx="520" cy="318" rx="16" ry="7" fill="#c56343"/><rect x="508" y="290" width="24" height="30" rx="10" fill="#E8744F"/><circle cx="520" cy="288" r="13" fill="#E8744F"/><circle cx="516" cy="284" r="4" fill="#ffffff" opacity=".4"/><ellipse cx="560" cy="318" rx="16" ry="7" fill="#ce8834"/><rect x="548" y="290" width="24" height="30" rx="10" fill="#F2A03D"/><circle cx="560" cy="288" r="13" fill="#F2A03D"/><circle cx="556" cy="284" r="4" fill="#ffffff" opacity=".4"/><ellipse cx="600" cy="318" rx="16" ry="7" fill="#355e7e"/><rect x="588" y="290" width="24" height="30" rx="10" fill="#3E6E94"/><circle cx="600" cy="288" r="13" fill="#3E6E94"/><circle cx="596" cy="284" r="4" fill="#ffffff" opacity=".4"/><circle cx="406" cy="173" r="4" fill="#F2A03D" opacity="0.6"/><circle cx="322" cy="230" r="4" fill="#F2A03D" opacity="0.6"/><polygon points="420.0,203.0 421.3,206.2 424.8,206.5 422.1,208.7 422.9,212.0 420.0,210.2 417.1,212.0 417.9,208.7 415.2,206.5 418.7,206.2" fill="#F2A03D" opacity="0.8"/><polygon points="205.0,226.0 207.1,231.1 212.6,231.5 208.4,235.1 209.7,240.5 205.0,237.6 200.3,240.5 201.6,235.1 197.4,231.5 202.9,231.1" fill="#F2A03D" opacity="0.8"/><circle cx="241" cy="110" r="4" fill="#58977c" opacity="0.6"/><polygon points="312.0,78.0 314.9,85.0 322.5,85.6 316.7,90.5 318.5,97.9 312.0,94.0 305.5,97.9 307.3,90.5 301.5,85.6 309.1,85.0" fill="#58977c" opacity="0.8"/></svg>