<svg xmlns="http://www.w3.org/2000/svg" viewBox="0 0 1200 460"><rect width="1200" height="460" rx="0" fill="#e6efeb"/><circle cx="192" cy="63" r="123" fill="#c9ddd4"/><circle cx="1059" cy="321" r="95" fill="#d1e2db"/><path d="M0 460 L0 360 Q 600.0 300 1200 360 L1200 460 Z" fill="#b0cec1"/><rect x="1060" y="250" width="21" height="21" rx="6" fill="#77aa94" transform="rotate(18 1060 250)"/><rect x="190" y="120" width="28" height="28" rx="6" fill="#77aa94" transform="rotate(11 190 120)"/><rect x="130" y="230" width="33" height="33" rx="6" fill="#77aa94" transform="rotate(7 130 230)"/><rect x="250" y="330" width="28" height="28" rx="6" fill="#77aa94" transform="rotate(-17 250 330)"/><rect x="1010" y="150" width="29" height="29" rx="6" fill="#77aa94" transform="rotate(4 1010 150)"/><circle cx="837" cy="278" r="6" fill="#F2A03D" opacity=".5"/><circle cx="596" cy="200" r="5" fill="#7E57A6" opacity=".5"/><circle cx="367" cy="55" r="4" fill="#F2A03D" opacity=".5"/><circle cx="1030" cy="327" r="3" fill="#5B9E4A" opacity=".5"/><circle cx="1007" cy="393" r="4" fill="#E8744F" opacity=".5"/><circle cx="862" cy="375" r="7" fill="#E8744F" opacity=".5"/><circle cx="383" cy="151" r="6" fill="#3E6E94" opacity=".5"/><circle cx="1018" cy="287" r="5" fill="#5B9E4A" opacity=".5"/><circle cx="181" cy="175" r="4" fill="#3E6E94" opacity=".5"/><circle cx="170" cy="79" r="7" fill="#2E7D5B" opacity=".5"/><circle cx="430" cy="235" r="118" fill="#96bead"/><circle cx="430" cy="235" r="100" fill="#fff"/><g transform="translate(341.2 146.2) scale(7.4)" fill="none" stroke="#2E7D5B" stroke-width="1.01" stroke-linecap="round" stroke-linejoin="round" color="#2E7D5B"><rect x="4.5" y="4.5" width="15" height="15" rx="3"/><circle cx="9" cy="9" r="1.1" fill="currentColor" stroke="none"/><circle cx="15" cy="9" r="1.1" fill="currentColor" stroke="none"/><circle cx="12" cy="12" r="1.1" fill="currentColor" stroke="none"/><circle cx="9" cy="15" r="1.1" fill="currentColor" stroke="none"/><circle cx="15" cy="15" r="1.1" fill="currentColor" stroke="none"/></g></svg>