<svg xmlns="http://www.w3.org/2000/svg" viewBox="0 0 1200 460"><rect width="1200" height="460" rx="0" fill="#e8eef2"/><circle cx="139" cy="76" r="99" fill="#cdd9e3"/><circle cx="988" cy="380" r="91" fill="#d5dfe7"/><path d="M0 460 L0 360 Q 600.0 300 1200 360 L1200 460 Z" fill="#b6c8d6"/><circle cx="980" cy="330" r="10" fill="#8ba8bf" opacity=".75"/><circle cx="976" cy="326" r="3" fill="#fff" opacity=".6"/><circle cx="1060" cy="250" r="16" fill="#8ba8bf" opacity=".75"/><circle cx="1054" cy="244" r="5" fill="#fff" opacity=".6"/><circle cx="190" cy="120" r="21" fill="#8ba8bf" opacity=".75"/><circle cx="183" cy="113" r="6" fill="#fff" opacity=".6"/><circle cx="130" cy="230" r="18" fill="#8ba8bf" opacity=".75"/><circle cx="124" cy="224" r="5" fill="#fff" opacity=".6"/><circle cx="250" cy="330" r="11" fill="#8ba8bf" opacity=".75"/><circle cx="246" cy="326" r="3" fill="#fff" opacity=".6"/><circle cx="617" cy="251" r="4" fill="#5B9E4A" opacity=".5"/><circle cx="434" cy="406" r="5" fill="#7E57A6" opacity=".5"/><circle cx="700" cy="49" r="7" fill="#5B9E4A" opacity=".5"/><circle cx="762" cy="282" r="5" fill="#7E57A6" opacity=".5"/><circle cx="433" cy="188" r="5" fill="#D24D6E" opacity=".5"/><circle cx="770" cy="85" r="7" fill="#2E7D5B" opacity=".5"/><circle cx="765" cy="246" r="7" fill="#F2A03D" opacity=".5"/><circle cx="283" cy="187" r="5" fill="#2E7D5B" opacity=".5"/><circle cx="399" cy="84" r="3" fill="#3E6E94" opacity=".5"/><circle cx="1133" cy="261" r="7" fill="#7E57A6" opacity=".5"/><circle cx="770" cy="235" r="118" fill="#9eb6ca"/><circle cx="770" cy="235" r="100" fill="#fff"/><g transform="translate(681.2 146.2) scale(7.4)" fill="none" stroke="#3E6E94" stroke-width="1.01" stroke-linecap="round" stroke-linejoin="round" color="#3E6E94"><path d="M9 3h6M10 3v6.2L5.4 17.3A2 2 0 0 0 7.1 20.4h9.8a2 2 0 0 0 1.7-3.1L14 9.2V3"/><path d="M8.2 14h7.6"/></g></svg>