<svg xmlns="http://www.w3.org/2000/svg" viewBox="0 0 1200 460"><rect width="1200" height="460" rx="0" fill="#e8eef2"/><circle cx="140" cy="67" r="106" fill="#cdd9e3"/><circle cx="1043" cy="371" r="145" fill="#d5dfe7"/><path d="M0 460 L0 360 Q 600.0 300 1200 360 L1200 460 Z" fill="#b6c8d6"/><circle cx="190" cy="120" r="14" fill="#8ba8bf" opacity=".75"/><circle cx="185" cy="115" r="4" fill="#fff" opacity=".6"/><circle cx="1060" cy="250" r="20" fill="#8ba8bf" opacity=".75"/><circle cx="1053" cy="243" r="6" fill="#fff" opacity=".6"/><circle cx="130" cy="230" r="15" fill="#8ba8bf" opacity=".75"/><circle cx="125" cy="225" r="4" fill="#fff" opacity=".6"/><circle cx="980" cy="330" r="17" fill="#8ba8bf" opacity=".75"/><circle cx="974" cy="324" r="5" fill="#fff" opacity=".6"/><circle cx="250" cy="330" r="26" fill="#8ba8bf" opacity=".75"/><circle cx="241" cy="321" r="8" fill="#fff" opacity=".6"/><circle cx="460" cy="94" r="6" fill="#F2A03D" opacity=".5"/><circle cx="409" cy="52" r="6" fill="#E8744F" opacity=".5"/><circle cx="897" cy="278" r="5" fill="#2E7D5B" opacity=".5"/><circle cx="896" cy="101" r="6" fill="#2E7D5B" opacity=".5"/><circle cx="359" cy="86" r="5" fill="#5B9E4A" opacity=".5"/><circle cx="808" cy="195" r="5" fill="#D24D6E" opacity=".5"/><circle cx="370" cy="378" r="3" fill="#D24D6E" opacity=".5"/><circle cx="357" cy="180" r="3" fill="#F2A03D" opacity=".5"/><circle cx="603" cy="146" r="3" fill="#2E7D5B" opacity=".5"/><circle cx="572" cy="215" r="4" fill="#3E6E94" opacity=".5"/><circle cx="770" cy="235" r="118" fill="#9eb6ca"/><circle cx="770" cy="235" r="100" fill="#fff"/><g transform="translate(681.2 146.2) scale(7.4)" fill="none" stroke="#3E6E94" stroke-width="1.01" stroke-linecap="round" stroke-linejoin="round" color="#3E6E94"><path d="M9 3h6M10 3v6.2L5.4 17.3A2 2 0 0 0 7.1 20.4h9.8a2 2 0 0 0 1.7-3.1L14 9.2V3"/><path d="M8.2 14h7.6"/></g></svg>