<svg xmlns="http://www.w3.org/2000/svg" viewBox="0 0 1200 460"><rect width="1200" height="460" rx="0" fill="#e6efeb"/><circle cx="157" cy="124" r="110" fill="#c9ddd4"/><circle cx="1019" cy="331" r="125" fill="#d1e2db"/><path d="M0 460 L0 360 Q 600.0 300 1200 360 L1200 460 Z" fill="#b0cec1"/><rect x="250" y="330" width="32" height="32" rx="6" fill="#77aa94" transform="rotate(-13 250 330)"/><rect x="190" y="120" width="22" height="22" rx="6" fill="#77aa94" transform="rotate(16 190 120)"/><rect x="1010" y="150" width="24" height="24" rx="6" fill="#77aa94" transform="rotate(-10 1010 150)"/><rect x="1060" y="250" width="24" height="24" rx="6" fill="#77aa94" transform="rotate(10 1060 250)"/><rect x="130" y="230" width="21" height="21" rx="6" fill="#77aa94" transform="rotate(3 130 230)"/><circle cx="305" cy="136" r="4" fill="#2E7D5B" opacity=".5"/><circle cx="930" cy="81" r="6" fill="#7E57A6" opacity=".5"/><circle cx="650" cy="110" r="5" fill="#2E7D5B" opacity=".5"/><circle cx="501" cy="401" r="3" fill="#5B9E4A" opacity=".5"/><circle cx="997" cy="408" r="6" fill="#F2A03D" opacity=".5"/><circle cx="986" cy="363" r="4" fill="#2E7D5B" opacity=".5"/><circle cx="696" cy="204" r="7" fill="#F2A03D" opacity=".5"/><circle cx="826" cy="90" r="3" fill="#F2A03D" opacity=".5"/><circle cx="1108" cy="57" r="3" fill="#3E6E94" opacity=".5"/><circle cx="325" cy="184" r="5" fill="#7E57A6" opacity=".5"/><circle cx="770" cy="235" r="118" fill="#96bead"/><circle cx="770" cy="235" r="100" fill="#fff"/><g transform="translate(681.2 146.2) scale(7.4)" fill="none" stroke="#2E7D5B" stroke-width="1.01" stroke-linecap="round" stroke-linejoin="round" color="#2E7D5B"><rect x="4.5" y="4.5" width="15" height="15" rx="3"/><circle cx="9" cy="9" r="1.1" fill="currentColor" stroke="none"/><circle cx="15" cy="9" r="1.1" fill="currentColor" stroke="none"/><circle cx="12" cy="12" r="1.1" fill="currentColor" stroke="none"/><circle cx="9" cy="15" r="1.1" fill="currentColor" stroke="none"/><circle cx="15" cy="15" r="1.1" fill="currentColor" stroke="none"/></g></svg>