<svg xmlns="http://www.w3.org/2000/svg" viewBox="0 0 1200 460"><rect width="1200" height="460" rx="0" fill="#e8eef2"/><circle cx="246" cy="97" r="96" fill="#cdd9e3"/><circle cx="1021" cy="302" r="120" fill="#d5dfe7"/><path d="M0 460 L0 360 Q 600.0 300 1200 360 L1200 460 Z" fill="#b6c8d6"/><circle cx="1010" cy="150" r="23" fill="#8ba8bf" opacity=".75"/><circle cx="1002" cy="142" r="7" fill="#fff" opacity=".6"/><circle cx="130" cy="230" r="12" fill="#8ba8bf" opacity=".75"/><circle cx="126" cy="226" r="4" fill="#fff" opacity=".6"/><circle cx="250" cy="330" r="23" fill="#8ba8bf" opacity=".75"/><circle cx="242" cy="322" r="7" fill="#fff" opacity=".6"/><circle cx="1060" cy="250" r="17" fill="#8ba8bf" opacity=".75"/><circle cx="1054" cy="244" r="5" fill="#fff" opacity=".6"/><circle cx="190" cy="120" r="24" fill="#8ba8bf" opacity=".75"/><circle cx="182" cy="112" r="7" fill="#fff" opacity=".6"/><circle cx="304" cy="100" r="7" fill="#7E57A6" opacity=".5"/><circle cx="804" cy="71" r="7" fill="#7E57A6" opacity=".5"/><circle cx="734" cy="306" r="6" fill="#7E57A6" opacity=".5"/><circle cx="88" cy="200" r="7" fill="#D24D6E" opacity=".5"/><circle cx="1074" cy="96" r="6" fill="#7E57A6" opacity=".5"/><circle cx="547" cy="387" r="6" fill="#5B9E4A" opacity=".5"/><circle cx="633" cy="180" r="4" fill="#5B9E4A" opacity=".5"/><circle cx="524" cy="289" r="7" fill="#F2A03D" opacity=".5"/><circle cx="1057" cy="270" r="4" fill="#5B9E4A" opacity=".5"/><circle cx="1074" cy="140" r="7" fill="#D24D6E" opacity=".5"/><circle cx="770" cy="235" r="118" fill="#9eb6ca"/><circle cx="770" cy="235" r="100" fill="#fff"/><g transform="translate(681.2 146.2) scale(7.4)" fill="none" stroke="#3E6E94" stroke-width="1.01" stroke-linecap="round" stroke-linejoin="round" color="#3E6E94"><path d="M9 3h6M10 3v6.2L5.4 17.3A2 2 0 0 0 7.1 20.4h9.8a2 2 0 0 0 1.7-3.1L14 9.2V3"/><path d="M8.2 14h7.6"/></g></svg>