<svg xmlns="http://www.w3.org/2000/svg" viewBox="0 0 1200 460"><rect width="1200" height="460" rx="0" fill="#e8eef2"/><circle cx="219" cy="136" r="124" fill="#cdd9e3"/><circle cx="1105" cy="315" r="120" fill="#d5dfe7"/><path d="M0 460 L0 360 Q 600.0 300 1200 360 L1200 460 Z" fill="#b6c8d6"/><circle cx="1010" cy="150" r="21" fill="#8ba8bf" opacity=".75"/><circle cx="1003" cy="143" r="6" fill="#fff" opacity=".6"/><circle cx="190" cy="120" r="21" fill="#8ba8bf" opacity=".75"/><circle cx="183" cy="113" r="6" fill="#fff" opacity=".6"/><circle cx="980" cy="330" r="24" fill="#8ba8bf" opacity=".75"/><circle cx="972" cy="322" r="7" fill="#fff" opacity=".6"/><circle cx="1060" cy="250" r="26" fill="#8ba8bf" opacity=".75"/><circle cx="1051" cy="241" r="8" fill="#fff" opacity=".6"/><circle cx="250" cy="330" r="23" fill="#8ba8bf" opacity=".75"/><circle cx="242" cy="322" r="7" fill="#fff" opacity=".6"/><circle cx="925" cy="365" r="6" fill="#3E6E94" opacity=".5"/><circle cx="781" cy="187" r="5" fill="#2E7D5B" opacity=".5"/><circle cx="765" cy="391" r="7" fill="#5B9E4A" opacity=".5"/><circle cx="1041" cy="46" r="5" fill="#7E57A6" opacity=".5"/><circle cx="271" cy="174" r="6" fill="#D24D6E" opacity=".5"/><circle cx="424" cy="141" r="3" fill="#F2A03D" opacity=".5"/><circle cx="465" cy="213" r="6" fill="#D24D6E" opacity=".5"/><circle cx="949" cy="397" r="7" fill="#2E7D5B" opacity=".5"/><circle cx="114" cy="321" r="4" fill="#2E7D5B" opacity=".5"/><circle cx="920" cy="64" r="7" fill="#3E6E94" opacity=".5"/><circle cx="430" cy="235" r="118" fill="#9eb6ca"/><circle cx="430" cy="235" r="100" fill="#fff"/><g transform="translate(341.2 146.2) scale(7.4)" fill="none" stroke="#3E6E94" stroke-width="1.01" stroke-linecap="round" stroke-linejoin="round" color="#3E6E94"><path d="M9 3h6M10 3v6.2L5.4 17.3A2 2 0 0 0 7.1 20.4h9.8a2 2 0 0 0 1.7-3.1L14 9.2V3"/><path d="M8.2 14h7.6"/></g></svg>